<svg width="120" height="120" viewBox="0 0 120 120" fill="none" xmlns="http://www.w3.org/2000/svg">
<path d="M94.071 68.482L92.2875 67.0338C91.8081 66.6464 91.421 66.1552 91.1549 65.5966C90.8887 65.038 90.7504 64.4262 90.75 63.8064V47.09C90.7476 39.9062 88.2757 32.9458 83.756 27.396C79.2362 21.8461 72.9485 18.0507 65.9655 16.657C65.625 15.3243 64.8552 14.1435 63.7772 13.3005C62.6992 12.4575 61.374 12 60.0102 12C58.6464 12 57.3213 12.4575 56.2433 13.3005C55.1653 14.1435 54.3955 15.3243 54.055 16.657C47.0682 18.0465 40.7758 21.8401 36.252 27.3903C31.7281 32.9405 29.2533 39.9033 29.25 47.09V63.8064C29.2496 64.4262 29.1113 65.038 28.8451 65.5966C28.579 66.1552 28.1919 66.6464 27.7125 67.0338L25.929 68.482C23.775 70.2198 22.0345 72.4229 20.8354 74.9291C19.6363 77.4353 19.0091 80.1809 19 82.964V86.3983C19 88.5931 19.8639 90.698 21.4017 92.2499C22.9395 93.8019 25.0252 94.6737 27.2 94.6737H44.133C45.0572 98.2066 47.1137 101.332 49.9821 103.561C52.8504 105.791 56.3692 107 59.9898 107C63.6103 107 67.1291 105.791 69.9974 103.561C72.8658 101.332 74.9223 98.2066 75.8465 94.6737H92.8C94.9748 94.6737 97.0605 93.8019 98.5983 92.2499C100.136 90.698 101 88.5931 101 86.3983V83.0054C100.997 80.2153 100.373 77.4616 99.1735 74.9478C97.9742 72.4339 96.2304 70.2242 94.071 68.482ZM60 98.8115C58.569 98.8027 57.1652 98.4162 55.928 97.6904C54.6909 96.9645 53.6635 95.9245 52.948 94.6737H67.0725C66.3553 95.9275 65.3247 96.9694 64.0836 97.6955C62.8426 98.4216 61.4345 98.8064 60 98.8115ZM92.8 86.3983H27.2V83.0054C27.2022 81.455 27.5497 79.9249 28.2168 78.5283C28.8839 77.1317 29.8535 75.9043 31.054 74.9368L32.8375 73.4886C34.2758 72.3264 35.4371 70.853 36.2354 69.1772C37.0338 67.5013 37.4488 65.6658 37.45 63.8064V47.09C37.45 41.0543 39.8258 35.2659 44.0547 30.998C48.2837 26.7302 54.0194 24.3325 60 24.3325C65.9806 24.3325 71.7163 26.7302 75.9453 30.998C80.1742 35.2659 82.55 41.0543 82.55 47.09V63.8064C82.5481 65.6693 82.9617 67.5088 83.7601 69.1885C84.5586 70.8682 85.7215 72.345 87.1625 73.5093L88.946 74.9575C90.1438 75.9228 91.1118 77.1469 91.7788 78.5397C92.4458 79.9324 92.7947 81.4585 92.8 83.0054V86.3983Z" fill="#B5FBF9"/>
</svg>
