<svg width="120" height="120" viewBox="0 0 120 120" fill="none" xmlns="http://www.w3.org/2000/svg">
<path d="M59.5 19.9348C69.9898 19.9463 80.0467 24.1185 87.4641 31.5359C94.8815 38.9533 99.0537 49.0102 99.0652 59.5C99.0842 65.866 97.5495 72.1405 94.5943 77.7791C91.7337 83.233 87.6528 87.953 82.6694 91.5715C75.9261 96.4431 67.8189 99.0652 59.5 99.0652C51.1811 99.0652 43.0739 96.4431 36.3306 91.5715C31.345 87.9543 27.2626 83.234 24.4017 77.7791C21.4479 72.1402 19.9146 65.8657 19.9348 59.5C19.9463 49.0102 24.1185 38.9533 31.5359 31.5359C38.9533 24.1185 49.0102 19.9463 59.5 19.9348ZM59.5 14C50.501 14 41.704 16.6685 34.2216 21.6681C26.7391 26.6677 20.9073 33.7739 17.4635 42.0879C14.0197 50.4019 13.1187 59.5505 14.8743 68.3766C16.6299 77.2027 20.9634 85.31 27.3267 91.6733C33.6899 98.0366 41.7973 102.37 50.6234 104.126C59.4495 105.881 68.5981 104.98 76.9121 101.536C85.2261 98.0927 92.3323 92.2609 97.3319 84.7784C102.331 77.296 105 68.499 105 59.5C105 47.4326 100.206 35.8595 91.6734 27.3266C83.1404 18.7937 71.5674 14 59.5 14Z" fill="#B5FBF9"/>
<path d="M62.3766 71.4013C67.1058 71.4076 71.6394 73.2893 74.983 76.6337C78.3267 79.9781 80.2074 84.5121 80.2126 89.2413V93.1978C73.9799 97.0215 66.8104 99.0454 59.4983 99.0454C52.1861 99.0454 45.0166 97.0215 38.7839 93.1978V89.2413C38.7891 84.5121 40.6698 79.9781 44.0135 76.6337C47.3571 73.2893 51.8907 71.4076 56.6199 71.4013H62.3766ZM62.3766 65.4666H56.6199C53.4979 65.4666 50.4066 66.0815 47.5223 67.2764C44.638 68.4712 42.0174 70.2225 39.81 72.4302C37.6026 74.638 35.8518 77.2589 34.6574 80.1434C33.4631 83.0278 32.8486 86.1193 32.8491 89.2413V96.363C40.6047 101.967 49.9297 104.984 59.4983 104.984C69.0668 104.984 78.3918 101.967 86.1474 96.363V89.2413C86.1479 86.1193 85.5335 83.0278 84.3391 80.1434C83.1447 77.2589 81.3939 74.638 79.1865 72.4302C76.9791 70.2225 74.3585 68.4712 71.4742 67.2764C68.59 66.0815 65.4986 65.4666 62.3766 65.4666Z" fill="#B5FBF9"/>
<path d="M59.5001 43.0051C60.973 43.0051 62.4128 43.4419 63.6374 44.2603C64.862 45.0786 65.8164 46.2418 66.3799 47.6027C66.9434 48.9635 67.0906 50.4609 66.803 51.9054C66.5153 53.3499 65.8058 54.6767 64.764 55.7179C63.7222 56.7591 62.3951 57.468 60.9504 57.7548C59.5057 58.0417 58.0084 57.8937 56.6479 57.3295C55.2873 56.7653 54.1247 55.8103 53.307 54.5853C52.4892 53.3602 52.0532 51.9202 52.054 50.4473C52.0561 48.4735 52.8414 46.5811 54.2375 45.1858C55.6336 43.7904 57.5263 43.0061 59.5001 43.0051ZM59.5001 37.0703C56.8533 37.0695 54.2657 37.8537 52.0646 39.3238C49.8635 40.7938 48.1478 42.8836 47.1346 45.3288C46.1213 47.774 45.856 50.4648 46.3722 53.0608C46.8883 55.6568 48.1628 58.0414 50.0344 59.913C51.906 61.7846 54.2906 63.0591 56.8867 63.5753C59.4827 64.0915 62.1735 63.8262 64.6187 62.8129C67.0639 61.7996 69.1537 60.0839 70.6237 57.8829C72.0937 55.6818 72.8779 53.0941 72.8771 50.4473C72.8761 46.8998 71.4664 43.4979 68.958 40.9895C66.4495 38.4811 63.0476 37.0714 59.5001 37.0703Z" fill="#B5FBF9"/>
</svg>
